HIERARCHY
ROOT Hips
{
	OFFSET -0.001795 -0.223333 0.028219
	CHANNELS 6 Xposition Yposition Zposition Zrotation Yrotation Xrotation 
	JOINT LeftUpLeg
	{
		OFFSET 0.069520 -0.091406 -0.006815
		CHANNELS 3 Zrotation Yrotation Xrotation
		JOINT LeftLeg
		{
			OFFSET 0.034277 -0.375199 -0.004496
			CHANNELS 3 Zrotation Yrotation Xrotation
			JOINT LeftFoot
			{
				OFFSET -0.013596 -0.397961 -0.043693
				CHANNELS 3 Zrotation Yrotation Xrotation
				JOINT LeftToe
				{
					OFFSET 0.026358 -0.055791 0.119288
					CHANNELS 3 Zrotation Yrotation Xrotation
					End Site
					{
						OFFSET 0.000000 0.000000 0.000000
					}
				}
			}
		}
	}
	JOINT RightUpLeg
	{
		OFFSET -0.067670 -0.090522 -0.004320
		CHANNELS 3 Zrotation Yrotation Xrotation
		JOINT RightLeg
		{
			OFFSET -0.038290 -0.382569 -0.008850
			CHANNELS 3 Zrotation Yrotation Xrotation
			JOINT RightFoot
			{
				OFFSET 0.015774 -0.398415 -0.042312
				CHANNELS 3 Zrotation Yrotation Xrotation
				JOINT RightToe
				{
					OFFSET -0.025372 -0.048144 0.123348
					CHANNELS 3 Zrotation Yrotation Xrotation
					End Site
					{
						OFFSET 0.000000 0.000000 0.000000
					}
				}
			}
		}
	}
	JOINT Spine
	{
		OFFSET -0.002533 0.108963 -0.026696
		CHANNELS 3 Zrotation Yrotation Xrotation
		JOINT Spine1
		{
			OFFSET 0.005487 0.135180 0.001092
			CHANNELS 3 Zrotation Yrotation Xrotation
			JOINT Spine2
			{
				OFFSET 0.001457 0.052922 0.025425
				CHANNELS 3 Zrotation Yrotation Xrotation
				JOINT Neck
				{
					OFFSET -0.002778 0.213870 -0.042857
					CHANNELS 3 Zrotation Yrotation Xrotation
					JOINT Head
					{
						OFFSET 0.005152 0.064970 0.051349
						CHANNELS 3 Zrotation Yrotation Xrotation
						End Site
						{
							OFFSET 0.000000 0.000000 0.000000
						}
					}
				}
				JOINT LeftShoulder
				{
					OFFSET 0.078845 0.121749 -0.034090
					CHANNELS 3 Zrotation Yrotation Xrotation
					JOINT LeftArm
					{
						OFFSET 0.090977 0.030469 -0.008868
						CHANNELS 3 Zrotation Yrotation Xrotation
						JOINT LeftForeArm
						{
							OFFSET 0.259612 -0.012772 -0.027456
							CHANNELS 3 Zrotation Yrotation Xrotation
							JOINT LeftHand
							{
								OFFSET 0.249234 0.008986 -0.001171
								CHANNELS 3 Zrotation Yrotation Xrotation
								End Site
								{
									OFFSET 0.000000 0.000000 0.000000
								}
							}
						}
					}
				}
				JOINT RightShoulder
				{
					OFFSET -0.081759 0.118833 -0.038615
					CHANNELS 3 Zrotation Yrotation Xrotation
					JOINT RightArm
					{
						OFFSET -0.096012 0.032551 -0.009143
						CHANNELS 3 Zrotation Yrotation Xrotation
						JOINT RightForeArm
						{
							OFFSET -0.253742 -0.013329 -0.021401
							CHANNELS 3 Zrotation Yrotation Xrotation
							JOINT RightHand
							{
								OFFSET -0.255298 0.007772 -0.005559
								CHANNELS 3 Zrotation Yrotation Xrotation
								End Site
								{
									OFFSET 0.000000 0.000000 0.000000
								}
							}
						}
					}
				}
			}
		}
	}
}
MOTION
Frames: 5
Frame Time: 0.050000
0.721597 0.976483 0.733835 15.201039 82.448603 12.188483 -4.566187 -1.350471 -11.962294 -0.104570 -1.009067 6.868854 -2.040336 12.878358 22.240433 0.000000 0.000000 0.000000 -3.901603 -2.367811 5.760124 -5.652417 -6.184537 23.834567 6.066578 10.549225 17.656929 0.000000 0.000000 0.000000 0.045955 -2.976733 19.053077 -5.238270 -1.156558 -38.057241 2.512865 18.831013 35.675313 15.589741 4.873494 -28.527394 0.000000 0.000000 0.000000 -14.336623 -10.157336 -19.372373 -55.664863 7.596263 -9.855573 -6.077784 -32.706368 -3.529625 0.000000 0.000000 0.000000 31.412334 -17.685229 12.295153 59.191770 27.593407 3.810460 -11.182804 30.764041 0.608938 0.000000 0.000000 0.000000 
0.751163 0.979053 0.726530 17.695834 83.712103 13.787057 -5.364981 -0.785972 -9.236732 0.035817 -1.014635 6.805885 -2.947398 11.533108 21.258082 0.000000 0.000000 0.000000 -2.903146 -1.930376 3.777003 -11.371227 -8.565461 32.166441 8.700582 13.386906 21.336094 0.000000 0.000000 0.000000 -0.847856 -2.835497 18.893372 -4.870494 -0.914709 -37.270452 2.079668 18.080469 36.271860 15.373103 5.252061 -29.129658 0.000000 0.000000 0.000000 -14.931963 -10.631584 -20.288480 -54.092279 8.650976 -9.207665 -6.223266 -32.248656 -3.321696 0.000000 0.000000 0.000000 30.862269 -17.164983 12.909243 60.213982 28.868440 4.983348 -11.050260 30.812213 0.546759 0.000000 0.000000 0.000000 
0.779583 0.980306 0.719792 19.172484 85.060899 13.823538 -5.877572 -0.280758 -5.963971 0.320889 -0.997617 6.666790 -3.631470 10.340898 20.452348 0.000000 0.000000 0.000000 -1.794512 -1.392325 -0.057034 -19.202135 -11.692245 42.821191 11.424455 15.684368 23.854267 0.000000 0.000000 0.000000 -1.628154 -3.104140 19.912954 -3.700457 -0.884426 -37.599596 1.016032 17.351290 36.834398 15.733778 4.955257 -28.885717 0.000000 0.000000 0.000000 -14.993437 -10.590641 -20.520692 -53.288943 8.719807 -8.713585 -6.533951 -32.255198 -3.222715 0.000000 0.000000 0.000000 30.561502 -17.170606 12.817517 60.377365 29.383822 5.419691 -9.851428 30.905247 0.732995 0.000000 0.000000 0.000000 
0.806327 0.981144 0.714100 21.112896 86.319426 14.546111 -6.392513 0.005589 -2.717187 0.664703 -0.891955 5.850991 -3.552913 9.992815 20.258808 0.000000 0.000000 0.000000 -0.795321 -1.131517 -4.407416 -25.791527 -13.313096 50.651662 12.035164 17.016519 19.784279 0.000000 0.000000 0.000000 -1.727300 -3.251664 20.294204 -3.957555 -0.644641 -36.869592 0.793225 15.971658 37.535848 15.133053 5.491537 -29.392200 0.000000 0.000000 0.000000 -15.722129 -11.830591 -21.049830 -52.327547 9.031692 -7.838276 -5.377584 -32.134835 -3.451563 0.000000 0.000000 0.000000 29.362032 -16.278863 12.935185 61.307779 29.125334 6.031421 -9.943707 31.239043 0.687249 0.000000 0.000000 0.000000 
0.832236 0.981825 0.709471 20.046170 87.647910 12.792134 -6.506515 0.070358 -0.309327 1.177165 -0.887736 5.963266 -3.972184 8.795775 19.038543 0.000000 0.000000 0.000000 0.406884 -1.036716 -7.741281 -27.945127 -13.999156 53.478760 11.478311 17.652678 13.248775 0.000000 0.000000 0.000000 -1.462865 -3.617778 21.123920 -3.704417 -0.595662 -36.981451 -0.095517 15.051242 37.032284 15.362043 4.947968 -28.304403 0.000000 0.000000 0.000000 -16.279983 -13.145091 -20.722333 -51.930281 9.191073 -7.418467 -3.946726 -32.828788 -3.928233 0.000000 0.000000 0.000000 29.088753 -15.701706 13.063892 61.530396 28.337089 5.700459 -9.615110 31.163478 0.670469 0.000000 0.000000 0.000000 
